<svg width="28" height="20" viewBox="0 0 28 20" fill="none" xmlns="http://www.w3.org/2000/svg">
<path fill-rule="evenodd" clip-rule="evenodd" d="M12.1691 0.784797C10.347 0.940669 8.72446 1.25669 7.742 1.64703C6.39434 2.18253 5.53606 3.08304 4.70385 4.83479L4.4015 5.47117L3.6996 5.49097C3.09337 5.50803 2.97607 5.52765 2.83895 5.63507C2.41248 5.96911 2.29856 6.51335 2.56757 6.9318C2.78843 7.27541 2.76112 7.33937 2.26105 7.6488C1.43802 8.15821 1.17255 8.54985 0.964923 9.56081C0.6655 11.0191 0.53502 13.8979 0.703005 15.3394C0.805554 16.2194 1.0129 17.3946 1.15904 17.9245C1.27127 18.3314 1.51055 18.6442 1.78199 18.7388C1.92773 18.7896 1.97627 18.8402 1.97627 18.9417C1.97627 19.1252 2.19128 19.4488 2.42239 19.6132C2.61037 19.747 2.63171 19.7484 4.45409 19.7484C6.27648 19.7484 6.29782 19.747 6.4858 19.6132C6.715 19.4502 6.93192 19.1256 6.93192 18.9457C6.93192 18.8281 6.96847 18.8108 7.28388 18.7793C7.47749 18.76 7.89996 18.6764 8.22281 18.5936C10.6988 17.9587 17.6297 17.9581 20.1123 18.5928C20.4343 18.6751 20.8441 18.7586 21.0231 18.7783C21.3109 18.81 21.3484 18.8294 21.3484 18.9456C21.3484 19.1256 21.5652 19.4502 21.7945 19.6132C21.9825 19.747 22.0038 19.7484 23.8262 19.7484C25.6486 19.7484 25.6699 19.747 25.8579 19.6132C26.0854 19.4514 26.304 19.126 26.304 18.949C26.304 18.8573 26.3587 18.8003 26.4972 18.7474C26.764 18.6455 27.0167 18.3212 27.1192 17.9489C27.2278 17.5545 27.4518 16.3767 27.5514 15.6763C27.6672 14.861 27.6497 11.9825 27.5224 10.9204C27.2637 8.76095 27.0441 8.28311 26.0192 7.6488C25.7419 7.47723 25.5726 7.33462 25.5737 7.27363C25.5746 7.21953 25.6379 7.06823 25.7142 6.93745C25.9757 6.48909 25.8666 5.96821 25.4413 5.63507C25.3042 5.52771 25.1869 5.50803 24.5824 5.49097L23.8822 5.47129L23.546 4.7776C23.0572 3.76883 22.7987 3.37683 22.2202 2.7669C21.7699 2.29209 21.6291 2.18419 21.1179 1.92161C20.1284 1.41346 18.8597 1.09036 16.984 0.868856C16.0664 0.760483 13.0658 0.70811 12.1691 0.784797ZM15.5761 2.68647C17.7799 2.82968 19.6748 3.22839 20.4583 3.71366C20.769 3.90615 21.1976 4.36788 21.4744 4.80833C21.7879 5.30722 22.3057 6.41663 22.3057 6.5895C22.3057 6.79269 22.2099 6.96343 22.0629 7.0221C21.9951 7.04921 20.9133 7.03078 19.6589 6.98108C16.6255 6.86106 11.6494 6.86207 8.68616 6.98334C7.28152 7.04083 6.30537 7.05765 6.22585 7.02579C6.07217 6.96408 5.97458 6.7965 5.97458 6.59426C5.97458 6.41514 6.46034 5.35965 6.78404 4.83532C7.0655 4.37936 7.59778 3.82513 7.91995 3.65255C9.26102 2.93407 12.7031 2.49974 15.5761 2.68647ZM4.67935 9.5494C5.65274 9.85633 6.18519 10.0814 6.58807 10.3563C6.92691 10.5875 6.98992 10.7019 6.87966 10.8858C6.8118 10.999 6.46029 11.0444 4.95698 11.1343C3.81341 11.2027 3.64846 11.2006 3.3121 11.1129C2.87251 10.9984 2.67699 10.8763 2.56396 10.6456C2.45945 10.4322 2.40612 9.84545 2.47009 9.61259C2.54696 9.33289 2.71134 9.27743 3.38412 9.30406C3.8606 9.3229 4.1121 9.37052 4.67935 9.5494ZM25.7065 9.3767C25.8977 9.57859 25.8872 10.3464 25.6884 10.6913C25.4655 11.0783 24.882 11.2175 23.7136 11.1626C22.545 11.1077 21.5006 11.0043 21.4187 10.9354C21.2983 10.8341 21.3395 10.6095 21.5032 10.4735C21.9129 10.1331 23.2071 9.62032 24.2554 9.38301C24.7947 9.2609 25.5935 9.25745 25.7065 9.3767ZM15.5257 13.1521C17.1587 13.2911 19.0001 13.6645 19.7203 14.0026C20.3005 14.275 20.561 14.709 20.3729 15.0894C20.1366 15.5672 19.6581 15.8179 18.8471 15.8889C18.0804 15.956 10.1459 15.9536 9.43661 15.886C8.58007 15.8044 8.02233 15.485 7.8838 14.9968C7.6805 14.2805 8.74952 13.7132 10.9021 13.3953C12.9265 13.0963 14.1276 13.0331 15.5257 13.1521Z" fill="url(#paint0_radial_3620_3207)"/>
<defs>
<radialGradient id="paint0_radial_3620_3207" cx="0" cy="0" r="1" gradientUnits="userSpaceOnUse" gradientTransform="translate(14.1289 10.2484) rotate(90) scale(18.4242 26.1818)">
<stop stop-color="white"/>
<stop offset="1" stop-color="white" stop-opacity="0"/>
</radialGradient>
</defs>
</svg>
