<svg width="99" height="14" viewBox="0 0 99 14" fill="none" xmlns="http://www.w3.org/2000/svg">
<path fill-rule="evenodd" clip-rule="evenodd" d="M6.85938 0.748413C6.58323 0.748413 6.26775 0.952662 6.15473 1.20462L0.834012 13.0659C0.720991 13.3178 0.853227 13.5221 1.12937 13.5221C1.40551 13.5221 1.72099 13.3178 1.83401 13.0659L7.15473 1.20462C7.26775 0.952662 7.13552 0.748413 6.85938 0.748413ZM13.8594 0.748413C13.5832 0.748413 13.2678 0.952662 13.1547 1.20462L7.83401 13.0659C7.72099 13.3178 7.85323 13.5221 8.12937 13.5221C8.40551 13.5221 8.72099 13.3178 8.83401 13.0659L14.1547 1.20462C14.2678 0.952662 14.1355 0.748413 13.8594 0.748413ZM20.1547 1.20462C20.2678 0.952662 20.5832 0.748413 20.8594 0.748413C21.1355 0.748413 21.2678 0.952662 21.1547 1.20462L15.834 13.0659C15.721 13.3178 15.4055 13.5221 15.1294 13.5221C14.8532 13.5221 14.721 13.3178 14.834 13.0659L20.1547 1.20462ZM27.8594 0.748413C27.5832 0.748413 27.2678 0.952662 27.1547 1.20462L21.834 13.0659C21.721 13.3178 21.8532 13.5221 22.1294 13.5221C22.4055 13.5221 22.721 13.3178 22.834 13.0659L28.1547 1.20462C28.2678 0.952662 28.1355 0.748413 27.8594 0.748413ZM34.1547 1.20462C34.2678 0.952662 34.5832 0.748413 34.8594 0.748413C35.1355 0.748413 35.2678 0.952662 35.1547 1.20462L29.834 13.0659C29.721 13.3178 29.4055 13.5221 29.1294 13.5221C28.8532 13.5221 28.721 13.3178 28.834 13.0659L34.1547 1.20462ZM41.8594 0.748413C41.5832 0.748413 41.2678 0.952662 41.1547 1.20462L35.834 13.0659C35.721 13.3178 35.8532 13.5221 36.1294 13.5221C36.4055 13.5221 36.721 13.3178 36.834 13.0659L42.1547 1.20462C42.2678 0.952662 42.1355 0.748413 41.8594 0.748413ZM48.1547 1.20462C48.2678 0.952662 48.5832 0.748413 48.8594 0.748413C49.1355 0.748413 49.2678 0.952662 49.1547 1.20462L43.834 13.0659C43.721 13.3178 43.4055 13.5221 43.1294 13.5221C42.8532 13.5221 42.721 13.3178 42.834 13.0659L48.1547 1.20462ZM55.8594 0.748413C55.5832 0.748413 55.2678 0.952662 55.1547 1.20462L49.834 13.0659C49.721 13.3178 49.8532 13.5221 50.1294 13.5221C50.4055 13.5221 50.721 13.3178 50.834 13.0659L56.1547 1.20462C56.2678 0.952662 56.1355 0.748413 55.8594 0.748413ZM62.1547 1.20462C62.2678 0.952662 62.5832 0.748413 62.8594 0.748413C63.1355 0.748413 63.2678 0.952662 63.1547 1.20462L57.834 13.0659C57.721 13.3178 57.4055 13.5221 57.1294 13.5221C56.8532 13.5221 56.721 13.3178 56.834 13.0659L62.1547 1.20462ZM69.8594 0.748413C69.5832 0.748413 69.2678 0.952662 69.1547 1.20462L63.834 13.0659C63.721 13.3178 63.8532 13.5221 64.1294 13.5221C64.4055 13.5221 64.721 13.3178 64.834 13.0659L70.1547 1.20462C70.2678 0.952662 70.1355 0.748413 69.8594 0.748413ZM76.1547 1.20462C76.2678 0.952662 76.5832 0.748413 76.8594 0.748413C77.1355 0.748413 77.2678 0.952662 77.1547 1.20462L71.834 13.0659C71.721 13.3178 71.4055 13.5221 71.1294 13.5221C70.8532 13.5221 70.721 13.3178 70.834 13.0659L76.1547 1.20462ZM83.8594 0.748413C83.5832 0.748413 83.2678 0.952662 83.1547 1.20462L77.834 13.0659C77.721 13.3178 77.8532 13.5221 78.1294 13.5221C78.4055 13.5221 78.721 13.3178 78.834 13.0659L84.1547 1.20462C84.2678 0.952662 84.1355 0.748413 83.8594 0.748413ZM90.1547 1.20462C90.2678 0.952662 90.5832 0.748413 90.8594 0.748413C91.1355 0.748413 91.2678 0.952662 91.1547 1.20462L85.834 13.0659C85.721 13.3178 85.4055 13.5221 85.1294 13.5221C84.8532 13.5221 84.721 13.3178 84.834 13.0659L90.1547 1.20462ZM97.8594 0.748413C97.5832 0.748413 97.2678 0.952662 97.1547 1.20462L91.834 13.0659C91.721 13.3178 91.8532 13.5221 92.1294 13.5221C92.4055 13.5221 92.721 13.3178 92.834 13.0659L98.1547 1.20462C98.2678 0.952662 98.1355 0.748413 97.8594 0.748413Z" fill="url(#paint0_linear_3620_3180)"/>
<defs>
<linearGradient id="paint0_linear_3620_3180" x1="2.94492" y1="6.74834" x2="94.5655" y2="29.8849" gradientUnits="userSpaceOnUse">
<stop stop-color="#58EE9D"/>
<stop offset="1" stop-color="#58EE9D" stop-opacity="0"/>
</linearGradient>
</defs>
</svg>
