<svg width="18" height="984" viewBox="0 0 18 984" fill="none" xmlns="http://www.w3.org/2000/svg">
<path fill-rule="evenodd" clip-rule="evenodd" d="M0 972.753L0 975.588L17.6297 983.497V980.661L0 972.753ZM0 833.788L0 836.624L17.6297 844.532V841.697L0 833.788ZM0 813.936L0 816.772L17.6297 824.68V821.844L0 813.936ZM0 796.92L0 794.084L17.6297 801.992V804.828L0 796.92ZM0 774.232L0 777.068L17.6297 784.976V782.14L0 774.232ZM0 757.216L0 754.38L17.6297 762.288V765.124L0 757.216ZM0 734.528L0 737.364L17.6297 745.272V742.436L0 734.528ZM0 717.512L0 714.676L17.6297 722.584V725.42L0 717.512ZM0 694.824L0 697.659L17.6297 705.568V702.732L0 694.824ZM0 677.807L0 674.971L17.6297 682.88V685.716L0 677.807ZM0 655.119L0 657.955L17.6297 665.863L17.6297 663.028L0 655.119ZM0 638.103L0 635.267L17.6297 643.176V646.012L0 638.103ZM0 615.415L0 618.251L17.6297 626.159V623.323L0 615.415ZM0 598.399L0 595.563L17.6297 603.471V606.307L0 598.399ZM0 575.711L0 578.547L17.6297 586.455V583.619L0 575.711ZM0 558.695L0 555.859L17.6297 563.767V566.603L0 558.695ZM0 536.007L0 538.843L17.6297 546.751V543.915L0 536.007ZM0 518.991L0 516.155L17.6297 524.063V526.899L0 518.991ZM0 496.303L0 499.139L17.6297 507.047V504.211L0 496.303ZM0 479.286L0 476.45L17.6297 484.359V487.195L0 479.286ZM0 456.598L0 459.434L17.6297 467.343V464.507L0 456.598ZM0 439.582L0 436.746L17.6297 444.655V447.49L0 439.582ZM0 416.894L0 419.73L17.6297 427.638V424.802L0 416.894ZM0 399.878L0 397.042L17.6297 404.95V407.786L0 399.878ZM0 377.19L0 380.026L17.6297 387.934V385.098L0 377.19ZM0 360.174L0 357.338L17.6297 365.246V368.082L0 360.174ZM0 337.486L0 340.322L17.6297 348.23V345.394L0 337.486ZM0 320.47L0 317.634L17.6297 325.542V328.378L0 320.47ZM0 297.782L0 300.618L17.6297 308.526V305.69L0 297.782ZM0 280.766L0 277.93L17.6297 285.838V288.674L0 280.766ZM0 258.078L0 260.913L17.6297 268.822V265.986L0 258.078ZM0 241.061L0 238.225L17.6297 246.134V248.97L0 241.061ZM0 218.373L0 221.209L17.6297 229.118V226.282L0 218.373ZM0 201.357L0 198.521L17.6297 206.43V209.265L0 201.357ZM0 178.669L0 181.505L17.6297 189.413V186.578L0 178.669ZM0 161.653L0 158.817L17.6297 166.725V169.561L0 161.653ZM0 138.965L0 141.801L17.6297 149.709V146.873L0 138.965ZM0 121.949L0 119.113L17.6297 127.021V129.857L0 121.949ZM0 99.2608L0 102.097L17.6297 110.005V107.169L0 99.2608ZM0 82.2446L0 79.4088L17.6297 87.3171V90.1529L0 82.2446ZM0 59.5566L0 62.3925L17.6297 70.3008V67.4649L0 59.5566ZM0 42.5405L0 39.7046L17.6297 47.6129V50.4488L0 42.5405ZM0 19.8524L0 22.6882L17.6297 30.5965V27.7607L0 19.8524ZM0 2.83618L0 0.000305176L17.6297 7.90861V10.7445L0 2.83618ZM0 955.737L0 952.901L17.6297 960.809V963.645L0 955.737ZM0 933.049L0 935.884L17.6297 943.793V940.957L0 933.049ZM0 916.032L0 913.197L17.6297 921.105V923.941L0 916.032ZM0 893.344L0 896.18L17.6297 904.089V901.253L0 893.344ZM0 876.328L0 873.492L17.6297 881.401V884.237L0 876.328ZM0 853.64L0 856.476L17.6297 864.384V861.548L0 853.64Z" fill="url(#paint0_linear_3620_3127)"/>
<defs>
<linearGradient id="paint0_linear_3620_3127" x1="17.9427" y1="963.212" x2="68.9354" y2="-5.82153" gradientUnits="userSpaceOnUse">
<stop stop-color="#58EE94" stop-opacity="0"/>
<stop offset="1" stop-color="#58EE94"/>
</linearGradient>
</defs>
</svg>
