<svg width="17" height="17" viewBox="0 0 17 17" fill="none" xmlns="http://www.w3.org/2000/svg">
<path fill-rule="evenodd" clip-rule="evenodd" d="M6.14122 0.783479C4.73539 0.981967 3.47563 1.60736 2.48448 2.5988C1.22738 3.85625 0.576162 5.49966 0.632248 7.27299C0.661949 8.21183 0.84112 8.95005 1.25083 9.82172C1.74789 10.8792 2.676 11.8922 3.72558 12.5227C5.10824 13.3533 6.78009 13.614 8.39219 13.2503C9.18147 13.0723 10.0986 12.645 10.7268 12.1627C10.8243 12.0877 10.9157 12.0265 10.9297 12.0265C10.9437 12.0265 11.9964 13.0673 13.269 14.3394C14.8864 15.9562 15.6178 16.6668 15.699 16.7005C15.935 16.7982 16.2358 16.7428 16.423 16.5672C16.6151 16.387 16.6838 16.0631 16.582 15.8173C16.5483 15.736 15.8361 15.0025 14.215 13.3799L11.896 11.0588L12.0033 10.9093C12.7099 9.9253 13.0795 9.03136 13.2417 7.91408C13.3038 7.48671 13.302 6.6267 13.2381 6.19408C13.0333 4.8081 12.4197 3.5898 11.4262 2.59642C10.4785 1.64892 9.33791 1.05771 7.98576 0.813157C7.59353 0.74223 6.55208 0.725468 6.14122 0.783479ZM7.59566 2.12674C9.71207 2.40863 11.3975 3.97127 11.8479 6.06899C11.9437 6.51522 11.9667 7.3567 11.8955 7.80462C11.739 8.78765 11.3255 9.67736 10.7014 10.3738C9.89299 11.2758 8.89034 11.8212 7.68876 12.0126C7.24097 12.0839 6.39974 12.0608 5.95364 11.965C5.03165 11.7669 4.1865 11.3224 3.52556 10.6878C1.48533 8.72899 1.4461 5.54438 3.43765 3.55225C4.54234 2.44725 6.06991 1.92353 7.59566 2.12674Z" fill="white" fill-opacity="0.22"/>
</svg>
